<svg xmlns="http://www.w3.org/2000/svg" viewBox="0 0 200 400" width="200" height="400">
  <ellipse cx="100" cy="30" rx="20" ry="25" fill="#d4d4d8" stroke="#a1a1aa" stroke-width="1"/>
  <rect x="92" y="55" width="16" height="15" rx="3" fill="#d4d4d8"/>
  <path d="M60 70 Q55 120 60 180 Q70 200 100 205 Q130 200 140 180 Q145 120 140 70 Z" fill="#d4d4d8" stroke="#a1a1aa" stroke-width="1"/>
  <!-- 左腕 -->
  <path d="M60 70 Q40 75 30 120 Q28 150 35 180 L45 180 Q48 150 45 120 Q50 85 60 80" fill="#d4d4d8" stroke="#a1a1aa" stroke-width="1"/>
  <!-- 右腕 -->
  <path d="M140 70 Q160 75 170 120 Q172 150 165 180 L155 180 Q152 150 155 120 Q150 85 140 80" fill="#d4d4d8" stroke="#a1a1aa" stroke-width="1"/>
  <!-- 上腕二頭筋ハイライト（左） -->
  <path d="M42 95 Q38 115 38 135 Q38 150 44 155 L48 155 Q50 140 50 120 Q50 105 48 95 Z" fill="#00d26a" opacity="0.8"/>
  <!-- 上腕二頭筋ハイライト（右） -->
  <path d="M158 95 Q162 115 162 135 Q162 150 156 155 L152 155 Q150 140 150 120 Q150 105 152 95 Z" fill="#00d26a" opacity="0.8"/>
  <ellipse cx="40" cy="188" rx="8" ry="10" fill="#d4d4d8"/>
  <ellipse cx="160" cy="188" rx="8" ry="10" fill="#d4d4d8"/>
  <path d="M70 200 Q65 260 60 320 Q58 350 65 380 L80 380 Q82 350 80 320 Q85 260 90 205" fill="#d4d4d8" stroke="#a1a1aa" stroke-width="1"/>
  <path d="M130 200 Q135 260 140 320 Q142 350 135 380 L120 380 Q118 350 120 320 Q115 260 110 205" fill="#d4d4d8" stroke="#a1a1aa" stroke-width="1"/>
  <text x="100" y="395" text-anchor="middle" font-size="11" fill="#00d26a" font-family="sans-serif">上腕二頭筋</text>
</svg>
