<svg xmlns="http://www.w3.org/2000/svg" viewBox="0 0 200 400" width="200" height="400">
  <!-- 人体前面シルエット -->
  <!-- 頭 -->
  <ellipse cx="100" cy="30" rx="20" ry="25" fill="#d4d4d8" stroke="#a1a1aa" stroke-width="1"/>
  <!-- 首 -->
  <rect x="92" y="55" width="16" height="15" rx="3" fill="#d4d4d8"/>
  <!-- 胴体 -->
  <path d="M60 70 Q55 120 60 180 Q70 200 100 205 Q130 200 140 180 Q145 120 140 70 Z" fill="#d4d4d8" stroke="#a1a1aa" stroke-width="1"/>
  <!-- 大胸筋ハイライト -->
  <path d="M68 80 Q65 100 70 120 Q80 130 100 125 Q95 100 92 80 Z" fill="#00d26a" opacity="0.8"/>
  <path d="M132 80 Q135 100 130 120 Q120 130 100 125 Q105 100 108 80 Z" fill="#00d26a" opacity="0.8"/>
  <!-- 左腕 -->
  <path d="M60 70 Q40 75 30 120 Q28 150 35 180 L45 180 Q48 150 45 120 Q50 85 60 80" fill="#d4d4d8" stroke="#a1a1aa" stroke-width="1"/>
  <!-- 右腕 -->
  <path d="M140 70 Q160 75 170 120 Q172 150 165 180 L155 180 Q152 150 155 120 Q150 85 140 80" fill="#d4d4d8" stroke="#a1a1aa" stroke-width="1"/>
  <!-- 左手 -->
  <ellipse cx="40" cy="188" rx="8" ry="10" fill="#d4d4d8"/>
  <!-- 右手 -->
  <ellipse cx="160" cy="188" rx="8" ry="10" fill="#d4d4d8"/>
  <!-- 左脚 -->
  <path d="M70 200 Q65 260 60 320 Q58 350 65 380 L80 380 Q82 350 80 320 Q85 260 90 205" fill="#d4d4d8" stroke="#a1a1aa" stroke-width="1"/>
  <!-- 右脚 -->
  <path d="M130 200 Q135 260 140 320 Q142 350 135 380 L120 380 Q118 350 120 320 Q115 260 110 205" fill="#d4d4d8" stroke="#a1a1aa" stroke-width="1"/>
  <!-- ラベル -->
  <text x="100" y="395" text-anchor="middle" font-size="11" fill="#00d26a" font-family="sans-serif">大胸筋</text>
</svg>
